<?xml version="1.0" encoding="UTF-8"?>
<svg id="Layer_1" xmlns="http://www.w3.org/2000/svg" version="1.1" viewBox="0 0 67.6 77.1">
  <!-- Generator: Adobe Illustrator 29.5.1, SVG Export Plug-In . SVG Version: 2.1.0 Build 141)  -->
  <defs>
    <style>
      .st0, .st1 {
        fill: #f58220;
      }

      .st1 {
        fill-rule: evenodd;
      }
    </style>
  </defs>
  <g id="Layer_2">
    <g id="Layer_1-2">
      <g id="M_Migros">
        <polygon class="st1" points=".3 0 24.9 0 33.3 37.7 41.8 0 66.9 0 66.9 59.4 53.3 59.4 53.3 11.8 43.2 59.4 24.5 59.4 13.7 11.9 13.7 59.4 .3 59.4 .3 0 .3 0"/>
        <g id="Migros">
          <g>
            <path class="st0" d="M3.4,76.8v-8.4l1.8,8.4h3.1l1.7-8.4v8.4h3.1v-12.9h-5.3l-1.1,6.1-1.1-6.1H.3v12.9h3.1Z"/>
            <path class="st1" d="M66.5,68c.2-3.1-2.7-4.2-5.2-4.2s-5.2.9-5.3,3.9c0,1.4.7,2.7,1.9,3.2,2.6,1.2,5.4,1,5.4,2.5s-1.1,1.5-1.9,1.5c-1.2,0-2-1.1-2-2.2h-3.4c0,3.4,2.6,4.3,5.4,4.3s5.6-1.2,5.6-3.9-3.3-3.8-5.3-4.3c-.9-.2-2-.5-2-1.4s.3-1.3,1.5-1.3,1.2.2,1.5.5.6.9.6,1.4h3.3,0Z"/>
            <rect class="st0" x="14.6" y="64" width="3.4" height="2.2"/>
            <path class="st1" d="M27.5,72c0,2.8-2.2,2.7-2.3,2.7-1.5,0-2.4-1.7-2.4-4.2s.5-4.7,2.5-4.7,2,.9,1.9,2h3.4c-.4-2.9-2.4-4.1-5.8-4.1s-5.8,2.6-5.8,6.6,2.5,6.5,5.7,6.5,3-1.2,3-1.2v1h2.9v-7.8h-5.7v2.3h2.5v.9Z"/>
            <path class="st1" d="M49.3,63.9c-3.7,0-6,2.4-6,6.6s2.2,6.5,6,6.5,6-2.4,6-6.6-2.3-6.6-6-6.6h0ZM49.2,75c-2.1,0-2.4-2.6-2.4-4.5s.3-4.6,2.5-4.6,2.5,2.6,2.5,4.6-.4,4.5-2.5,4.5h0Z"/>
            <rect class="st0" x="14.6" y="66.9" width="3.4" height="9.9"/>
            <path class="st1" d="M40.4,70c1.2,0,2.3-.9,2.3-2.8,0-2.7-2.7-3.3-4.9-3.3h-5.8v12.9h3.4v-5.5h1.4c1.6,0,2.3,0,2.3,1.3v4.2h3.4v-4.7c0-.8.2-2.1-2.1-2.1ZM36.8,68.9h-1.4v-2.5h1.4c1.1,0,2.4,0,2.4,1.3s-1.2,1.3-2.4,1.3h0Z"/>
          </g>
        </g>
      </g>
    </g>
  </g>
</svg>