<?xml version="1.0" encoding="UTF-8"?>
<svg id="Layer_1" xmlns="http://www.w3.org/2000/svg" version="1.1" viewBox="0 0 154.5 64.3" width="154.5" height="64.3">
  <!-- Generator: Adobe Illustrator 29.0.0, SVG Export Plug-In . SVG Version: 2.1.0 Build 186)  -->
  <defs>
    <style>
      .st0 {
        fill: #006937;
      }

      .st1 {
        fill: #3dae2b;
      }
    </style>
  </defs>
  <g>
    <path class="st0" d="M53.8,46.7h-8.2c-1.9,0-3.6-.9-4.8-2.3l-12.4-16,12.4-16c1.1-1.5,2.9-2.3,4.8-2.3h8.2c-1.3,0-3.6,2.5-3.6,2.5l-12.8,15.8,12.8,15.8s2.3,2.5,3.6,2.5ZM117,28.4c0,10.4-8,18.3-18.6,18.3-6.5,0-12.1-3-15.4-7.8-3.3,4.8-8.8,7.8-15.4,7.8-10.5,0-18.6-7.9-18.6-18.3,0-10.4,8-18.3,18.6-18.3,6.6,0,12.1,3,15.4,7.8,3.3-4.8,8.8-7.8,15.4-7.8,10.6,0,18.6,7.9,18.6,18.3ZM79.4,28.4c0-6.7-5-11.8-11.7-11.8-6.7,0-11.7,5.1-11.7,11.8,0,6.7,5,11.8,11.7,11.8,6.7,0,11.7-5.1,11.7-11.8ZM110.1,28.4c0-6.7-5-11.8-11.7-11.8-6.7,0-11.7,5.1-11.7,11.8,0,6.7,5,11.8,11.7,11.8s11.7-5.1,11.7-11.8ZM149.3,22.6c0,7.1-5.5,12.4-12.7,12.4h-9.8s0,7.7,0,7.7c0,2.2-1.8,4-4,4h-3.1s0-36.5,0-36.5h16.8c7.2,0,12.7,5.4,12.7,12.5ZM142.2,22.6c0-3.3-2.4-5.7-5.6-5.7h-9.7s0,11.4,0,11.4h9.7c3.3,0,5.6-2.4,5.6-5.7Z"/>
    <path class="st1" d="M24,10.1h-4.3s0,14.5,0,14.5h-11.7c-1.6,0-2.8,1.3-2.8,2.8v4.8s14.5,0,14.5,0v14.5s4.3,0,4.3,0c1.8,0,3.3-1.5,3.3-3.3V13.4c0-1.8-1.5-3.3-3.3-3.3Z"/>
  </g>
  <g>
    <path class="st1" d="M23.3,2h-1.3s0,3.4,0,3.4h-1s0-3.4,0-3.4h-1.3s0-.9,0-.9h3.5s0,.9,0,.9Z"/>
    <path class="st1" d="M28.4,4.6h-1.9s-.3.9-.3.9h-1s1.8-4.3,1.8-4.3h1s1.8,4.3,1.8,4.3h-1s-.4-.9-.4-.9ZM26.8,3.7h1.2s-.6-1.5-.6-1.5l-.6,1.5Z"/>
    <path class="st1" d="M33.3,5.5h-1s0-4.3,0-4.3h2c1.1,0,1.7.6,1.7,1.5,0,.7-.4,1.2-1.1,1.4l1.1,1.5h-1.1s-1-1.4-1-1.4h-.6s0,1.4,0,1.4ZM34.2,3.2c.5,0,.7-.2.7-.6s-.3-.6-.7-.6h-.9s0,1.2,0,1.2h.9Z"/>
    <path class="st1" d="M39.8,5.5h-1s0-4.3,0-4.3h1s0,4.3,0,4.3Z"/>
    <path class="st1" d="M43.7,2.8v2.7s-1,0-1,0V1.1s1,0,1,0l1.5,2.5,1.5-2.5h1s0,4.3,0,4.3h-1s0-2.7,0-2.7l-1.1,1.9h-.7s-1.1-1.9-1.1-1.9Z"/>
    <path class="st1" d="M56.2,3l1.9,2.4h-1.2s-1.3-1.7-1.3-1.7l-.5.6v1.1s-1,0-1,0V1.1s1,0,1,0v1.9s1.8-1.9,1.8-1.9h1.2s-1.8,1.9-1.8,1.9Z"/>
    <path class="st1" d="M61.6,5.5h-1s0-4.3,0-4.3h2c1.1,0,1.7.6,1.7,1.5s-.4,1.2-1.1,1.4l1.1,1.5h-1.1s-1-1.4-1-1.4h-.6s0,1.4,0,1.4ZM62.5,3.2c.5,0,.7-.2.7-.6s-.3-.6-.7-.6h-.9s0,1.2,0,1.2h.9Z"/>
    <path class="st1" d="M67.1,5.5V1.1s3.2,0,3.2,0v.9s-2.3,0-2.3,0v.8s2.1,0,2.1,0v.9s-2.1,0-2.1,0v.8s2.3,0,2.3,0v.9s-3.3,0-3.3,0Z"/>
    <path class="st1" d="M74.9,5.5h-1.7s0-4.3,0-4.3h1.7c1.3,0,2.2,1,2.2,2.2,0,1.2-.9,2.2-2.2,2.2ZM74.8,4.6c.8,0,1.3-.5,1.3-1.3,0-.7-.5-1.3-1.3-1.3h-.6s0,2.5,0,2.5h.6Z"/>
    <path class="st1" d="M80.5-.2c.3,0,.5.2.5.5s-.2.5-.5.5-.5-.2-.5-.5.2-.5.5-.5ZM81,5.5h-1s0-4.3,0-4.3h1s0,4.3,0,4.3Z"/>
  </g>
  <g>
    <path class="st0" d="M23.8,63.2l.9-2.4c-2.8-.3-4.9-2.6-4.9-5.5s2.4-5.5,5.6-5.5,4.7,1.6,5.1,3.8h-1.7c-.3-1.3-1.5-2.3-3.4-2.3s-3.9,1.7-3.9,4,1.6,4,3.9,4,3.1-1,3.4-2.3h1.7c-.4,2.1-2.1,3.6-4.4,3.8l-.7,2.4h-1.5Z"/>
    <path class="st0" d="M33,50.9c.5,0,.9.4.9.9s-.4.9-.9.9-.9-.4-.9-.9.4-.9.9-.9ZM33.8,60.7h-1.5v-6.7h1.5v6.7Z"/>
    <path class="st0" d="M36.4,54v-1.1c0-2,.8-3,2.5-3s.9,0,1.2.2v1.2c-.3,0-.6,0-.9,0-1,0-1.4.6-1.4,1.8v.9h2.1v1.3h-2.1v5.4h-1.5v-5.4h-1.2v-1.3h1.2Z"/>
    <path class="st0" d="M42,54v-2.1h1.4v2.1h2.3v1.3h-2.3v2.9c0,1,.4,1.2,1.3,1.2s.8,0,1.1-.2v1.3c-.3.1-.9.2-1.4.2-1.5,0-2.4-.6-2.4-2.3v-3.2h-1.2v-1.3h1.3Z"/>
    <path class="st0" d="M48.8,63.1l.9-2.4c-1.7-.3-2.9-1.7-2.9-3.4s1.5-3.5,3.5-3.5,3.1,1.3,3.3,2.6h-1.5c-.2-.7-.7-1.2-1.8-1.2s-2,.9-2,2.2.8,2.2,2,2.2,1.6-.6,1.8-1.3h1.5c-.1,1.2-1,2.3-2.6,2.5l-.7,2.4h-1.5Z"/>
    <path class="st0" d="M55.9,50.9c.5,0,.9.4.9.9s-.4.9-.9.9-.9-.4-.9-.9.4-.9.9-.9ZM56.6,60.7h-1.5v-6.7h1.5v6.7Z"/>
    <path class="st0" d="M64,52.8v7.9h-1.6v-10.6h1.6l4.1,7,4.1-7h1.5v10.6h-1.6v-7.9l-3.5,5.9h-1.2l-3.5-6Z"/>
    <path class="st0" d="M79.1,53.8c1,0,1.7.4,2.3,1v-.9h1.4v6.7h-1.4v-.9c-.5.6-1.3,1-2.3,1-1.9,0-3.3-1.5-3.3-3.5s1.4-3.5,3.3-3.5ZM79.3,59.5c1.1,0,2-.9,2-2.2s-.9-2.2-2-2.2-2,.9-2,2.2.8,2.2,2,2.2Z"/>
    <path class="st0" d="M88.9,55.3c-.1,0-.4,0-.6,0-1.4,0-2.1.9-2.1,2.2v3.1h-1.5v-6.7h1.4v1.1c.4-.7,1.1-1.2,2.2-1.2s.4,0,.5,0v1.4Z"/>
    <path class="st0" d="M93.7,56.8l3.1,3.9h-1.7l-2.3-3-.9.8v2.2h-1.5v-10.6h1.5v6.8l3-2.8h1.9l-3,2.8Z"/>
    <path class="st0" d="M97.1,57.3c0-2,1.4-3.5,3.4-3.5s3.3,1.5,3.3,3.4,0,.4,0,.6h-5.2c.2,1.1,1,1.7,2,1.7s1.5-.4,1.7-1h1.4c-.3,1.2-1.4,2.2-3.1,2.2s-3.4-1.5-3.4-3.5ZM98.6,56.8h3.8c-.2-1.1-.9-1.7-1.8-1.7s-1.7.6-1.9,1.7Z"/>
    <path class="st0" d="M106,54v-2.1h1.4v2.1h2.3v1.3h-2.3v2.9c0,1,.4,1.2,1.3,1.2s.8,0,1.1-.2v1.3c-.3.1-.9.2-1.4.2-1.5,0-2.4-.6-2.4-2.3v-3.2h-1.2v-1.3h1.3Z"/>
    <path class="st0" d="M112.1,50.9c.5,0,.9.4.9.9s-.4.9-.9.9-.9-.4-.9-.9.4-.9.9-.9ZM112.9,60.7h-1.5v-6.7h1.5v6.7Z"/>
  </g>
</svg>